<?xml version="1.0" encoding="UTF-8"?>
<svg xmlns="http://www.w3.org/2000/svg" viewBox="0 0 1000 1000">
  <defs>
    <style>
      .cls-1 {
        isolation: isolate;
      }

      .cls-2 {
        fill: #323232;
      }

      .cls-3 {
        fill: #f0db4f;
      }

      .cls-4 {
        fill: #323330;
      }
    </style>
  </defs>
  <g id="_рамка" data-name="рамка" class="cls-1">
    <polygon class="cls-3" points="60.79 901.71 60.79 250.93 207.94 125.54 938.05 125.54 938.05 772.35 797.67 901.71 60.79 901.71"/>
    <g>
      <path class="cls-2" d="m810.07,901.34c1.62,1.09,3.49.54,5.23.55,33.5.19,67,.32,100.5.51,2.15.01,4.36.12,6.42.66,2.85.74,4.58,2.84,4.56,5.84-.02,3.01-1.81,5.09-4.65,5.78-2.23.54-4.61.62-6.92.63-38.83.13-77.66.26-116.5.25-3.78,0-6.6,1.11-9.35,3.67-18.56,17.24-37.4,34.17-55.8,51.58-6.93,6.55-14.38,9.08-23.91,8.64-50.29-2.29-100.63-2.17-150.95-2.91-94.48-1.39-188.96-3.2-283.44-4.84-5.74-.1-9.15-2.69-8.48-6.72.77-4.56,4.2-5.46,8.22-5.47,24.67-.07,49.33-.29,74-.29,96.16,0,192.32.09,288.48.06,25.17,0,50.33-.36,75.5-.51,2.41-.02,4.51-.45,6.42-2.15,14.57-12.96,29.2-25.84,43.8-38.77.34-.3.52-.79.99-1.52-2.15-1.09-4.31-.59-6.35-.59-227.82.78-455.65,1.59-683.47,2.38-17.24.06-21.07-3.96-20.85-21.27,1.23-96.82,3.15-193.63,4.04-290.46.73-79.49,2.3-158.97,3.51-238.46.02-1.33-.05-2.71.28-3.97.86-3.27,3.19-5.28,6.48-5.24,3.25.04,4.96,2.46,5.52,5.52.27,1.46.26,2.99.27,4.48.62,93.16,1.33,186.32,1.81,279.48.41,80,.46,159.99,1.5,239.99.09,7.02.07,7.03,7.05,7.09,85.83.65,171.66,1.25,257.48,1.96,144.49,1.2,288.98,2.45,433.47,3.8,4.85.05,8.4-1.32,12.03-4.54,47.5-42.12,95.11-84.12,142.73-126.1,17.5-15.42,35.11-30.71,52.67-46.05.5-.44,1.03-.85,1.54-1.28,3.2-2.66,6.54-4.37,10.15-.82,2.9,2.85,2.33,6.5-1.85,10.36-18.71,17.32-37.48,34.57-56.24,51.84-41.2,37.92-82.4,75.83-123.58,113.76-.92.85-2.39,1.33-2.29,3.12Z"/>
      <path class="cls-2" d="m225.01,126.57c1.91,1.09,3.93.54,5.84.53,230.32-1,460.65-2.03,690.97-3.05,2.67-.01,5.33-.06,8,0,10.45.25,15.75,5.44,15.72,15.86-.04,13.33-.38,26.66-.6,39.99-1.68,104.65-3.36,209.29-5.04,313.94-.84,51.82-1.69,103.65-2.54,155.47-.04,2.32.2,4.71-.8,6.9-1.25,2.74-3.21,4.88-6.43,4.65-3.2-.23-5.1-2.46-5.72-5.46-.43-2.09-.37-4.3-.38-6.46-.17-66.16-.3-132.33-.46-198.49-.25-98.83-.54-197.65-.8-296.48-.02-6.75.02-6.73-6.64-6.78-188.16-1.47-376.31-2.82-564.46-4.53-47-.43-94-.35-140.99-.89-4.15-.05-6.88,1.78-9.74,4.12-42.62,35.01-85.23,70.03-127.89,104.98-18.81,15.41-37.74,30.69-56.64,46.01-1.41,1.15-2.89,2.29-4.52,3.07-2.71,1.3-5.27.7-7.24-1.56-2.02-2.33-1.94-4.98-.21-7.37,1.16-1.59,2.69-2.94,4.2-4.24,55.02-47.19,110.06-94.36,165.09-141.54,1.11-.95,2.12-2.01,3.24-3.08-1.9-1.92-4.02-1.16-5.88-1.18-31.83-.24-63.66-.41-95.5-.59-7.33-.04-10.61-1.92-10.7-6.16-.09-4.37,3.45-6.53,10.96-6.56,37.83-.15,75.66-.32,113.5-.35,3.75,0,6.62-1.07,9.46-3.51,20.67-17.88,41.61-35.44,62.1-53.52,6.46-5.7,13.24-7.97,21.76-7.87,138.15,1.63,276.31,3.06,414.46,4.53,11.83.13,23.67.09,35.5.18,1.66.01,3.39-.02,4.95.44,2.76.81,4.7,2.7,4.8,5.73.11,3.03-1.71,4.93-4.4,6.04-2.39.99-4.93.71-7.41.72-79,.36-158,.61-236.99,1.08-70.16.42-140.32,1.13-210.49,1.6-4.08.03-7.23,1.1-10.39,3.75-14.69,12.31-29.58,24.37-44.37,36.55-1.21,1-2.94,1.59-3.33,3.54Z"/>
      <path class="cls-2" d="m853.73,388.91c0-57.97,0-115.93.01-173.9,0-2.33-.04-4.69.36-6.97.79-4.49,4.38-7.64,8.21-7.23,4.44.48,6.69,3.38,7.38,7.58.24,1.47.18,2.99.18,4.49-.23,117.43-.47,234.87-.73,352.3,0,1.99-.03,4.04-.49,5.95-.95,3.97-3.5,6.63-7.71,6.53-4.22-.09-6.65-2.9-7.4-6.89-.43-2.26-.32-4.64-.32-6.97-.01-58.3-.01-116.6-.01-174.9.17,0,.35,0,.52,0Z"/>
      <path class="cls-2" d="m142.45,649.75c0,60.33,0,120.66,0,180.98,0,2.33.09,4.69-.25,6.98-.67,4.52-4.08,7.67-8.02,7.46-4.5-.24-6.88-3.04-7.71-7.21-.35-1.78-.3-3.65-.3-5.48-.08-121.99-.15-243.98-.22-365.97,0-.67,0-1.33.01-2,.19-6.01,3.22-9.74,7.84-9.66,4.61.08,7.51,3.77,7.51,9.91.02,61.66.01,123.32.01,184.98h1.13Z"/>
    </g>
    <rect class="cls-4" x="323.29" y="309.14" width="41.78" height="492.87"/>
    <polygon class="cls-4" points="309.49 756.7 309.49 802.01 213.49 802.01 201.09 789.61 201.09 685.71 241.81 685.71 241.81 756.7 309.49 756.7"/>
    <polygon class="cls-4" points="663.14 309.63 706.06 309.63 705.97 600.88 663.14 600.88 663.14 309.63"/>
    <polygon class="cls-4" points="663.14 354.94 663.14 309.63 546.9 309.63 534.51 322.02 534.51 600.88 575.23 600.88 575.23 354.94 663.14 354.94"/>
    <polygon class="cls-4" points="706.06 354.94 706.06 309.63 816.04 309.63 828.44 322.02 828.44 600.88 787.71 600.88 787.71 354.94 706.06 354.94"/>
    <polygon class="cls-4" points="380.7 354.45 380.7 309.14 476.71 309.14 489.1 321.54 489.1 425.43 448.38 425.43 448.38 354.45 380.7 354.45"/>
    <polygon class="cls-4" points="380.7 555.57 380.7 600.88 476.71 600.88 489.1 588.49 489.1 425.43 448.38 425.43 448.38 555.57 380.7 555.57"/>
  </g>
</svg>